<svg width="17" height="28" viewBox="0 0 17 28" fill="none" xmlns="http://www.w3.org/2000/svg">
<path d="M13.3169 27.3271C13.6762 27.6709 14.1137 27.8584 14.6137 27.8584C15.6606 27.8584 16.4731 27.0459 16.4731 26.0146C16.4731 25.499 16.27 25.0303 15.9106 24.6709L4.97311 13.9834L15.9106 3.32715C16.27 2.96777 16.4731 2.4834 16.4731 1.9834C16.4731 0.952148 15.6606 0.139648 14.6137 0.139648C14.1137 0.139648 13.6762 0.327148 13.3325 0.670898L1.17624 12.5459C0.738739 12.9521 0.519989 13.4521 0.519989 13.999C0.519989 14.5459 0.738739 15.0146 1.16061 15.4365L13.3169 27.3271Z" fill="white"/>
</svg>
